<mxfile host="65bd71144e">
    <diagram id="Vq0XXKZw8cBZiSLBVc9T" name="Page-1">
        <mxGraphModel dx="640" dy="622" grid="1" gridSize="10" guides="1" tooltips="1" connect="1" arrows="1" fold="1" page="1" pageScale="1" pageWidth="827" pageHeight="1169" math="0" shadow="0">
            <root>
                <mxCell id="0"/>
                <mxCell id="1" parent="0"/>
                <mxCell id="7" value="&amp;nbsp;User&lt;div&gt;&lt;br&gt;&lt;/div&gt;&lt;div&gt;&amp;nbsp;name string&lt;/div&gt;&lt;div&gt;&amp;nbsp;email string&lt;/div&gt;&lt;div&gt;&amp;nbsp;password string&lt;/div&gt;&lt;div&gt;&amp;nbsp;avatar? default string | NULL&lt;/div&gt;&lt;div&gt;&amp;nbsp;accountId Id string&lt;/div&gt;&lt;div&gt;&amp;nbsp;createdAt? default Date.now&lt;/div&gt;" style="rounded=1;whiteSpace=wrap;html=1;align=left;" vertex="1" parent="1">
                    <mxGeometry x="140" y="90" width="190" height="190" as="geometry"/>
                </mxCell>
            </root>
        </mxGraphModel>
    </diagram>
</mxfile>
